<svg width="30" height="30" viewBox="0 0 30 30" fill="none" xmlns="http://www.w3.org/2000/svg">
<g id="Vector">
<path fill-rule="evenodd" clip-rule="evenodd" d="M5.45455 0C2.44208 0 0 2.44208 0 5.45455V24.5455C0 27.5579 2.44208 30 5.45455 30H24.5455C27.5579 30 30 27.5579 30 24.5455V5.45455C30 2.44208 27.5579 0 24.5455 0H5.45455ZM11.8388 8.55372C11.8388 6.08898 13.837 4.09091 16.3016 4.09091H20.2685C20.5425 4.09091 20.7645 4.31292 20.7645 4.58678V8.55372C20.7645 8.82758 20.5425 9.04958 20.2685 9.04958H18.2851C17.4635 9.04958 16.7975 9.71561 16.7975 10.5372V12.0248H20.2685C20.4213 12.0248 20.5654 12.0951 20.6595 12.2155C20.7535 12.3359 20.7867 12.4928 20.7496 12.6409L19.7579 16.6079C19.7028 16.8286 19.5044 16.9834 19.2769 16.9834H16.7975V25.4133C16.7975 25.6871 16.5755 25.9091 16.3016 25.9091H12.3348C12.0608 25.9091 11.8388 25.6871 11.8388 25.4133V16.9834H9.35951C9.08565 16.9834 8.86364 16.7614 8.86364 16.4876V12.5206C8.86364 12.2468 9.08565 12.0248 9.35951 12.0248H11.8388V8.55372Z" fill="#475C6D"/>
<path fill-rule="evenodd" clip-rule="evenodd" d="M5.45455 0C2.44208 0 0 2.44208 0 5.45455V24.5455C0 27.5579 2.44208 30 5.45455 30H24.5455C27.5579 30 30 27.5579 30 24.5455V5.45455C30 2.44208 27.5579 0 24.5455 0H5.45455ZM11.8388 8.55372C11.8388 6.08898 13.837 4.09091 16.3016 4.09091H20.2685C20.5425 4.09091 20.7645 4.31292 20.7645 4.58678V8.55372C20.7645 8.82758 20.5425 9.04958 20.2685 9.04958H18.2851C17.4635 9.04958 16.7975 9.71561 16.7975 10.5372V12.0248H20.2685C20.4213 12.0248 20.5654 12.0951 20.6595 12.2155C20.7535 12.3359 20.7867 12.4928 20.7496 12.6409L19.7579 16.6079C19.7028 16.8286 19.5044 16.9834 19.2769 16.9834H16.7975V25.4133C16.7975 25.6871 16.5755 25.9091 16.3016 25.9091H12.3348C12.0608 25.9091 11.8388 25.6871 11.8388 25.4133V16.9834H9.35951C9.08565 16.9834 8.86364 16.7614 8.86364 16.4876V12.5206C8.86364 12.2468 9.08565 12.0248 9.35951 12.0248H11.8388V8.55372Z" fill="#FAFAFA" fill-opacity="0.9"/>
</g>
</svg>
