<svg width="30" height="30" viewBox="0 0 30 30" fill="none" xmlns="http://www.w3.org/2000/svg">
<g id="Vector">
<path fill-rule="evenodd" clip-rule="evenodd" d="M5.45455 0C2.44208 0 0 2.44208 0 5.45455V24.5455C0 27.5579 2.44208 30 5.45455 30H24.5455C27.5579 30 30 27.5579 30 24.5455V5.45455C30 2.44208 27.5579 0 24.5455 0H5.45455ZM4.77273 10.9091C4.77273 7.52007 7.52007 4.77273 10.9091 4.77273H19.0909C22.48 4.77273 25.2273 7.52007 25.2273 10.9091V19.0909C25.2273 22.48 22.48 25.2273 19.0909 25.2273H10.9091C7.52007 25.2273 4.77273 22.48 4.77273 19.0909V10.9091ZM10.9091 6.13636C8.27318 6.13636 6.13636 8.27318 6.13636 10.9091V19.0909C6.13636 21.7268 8.27318 23.8636 10.9091 23.8636H19.0909C21.7268 23.8636 23.8636 21.7268 23.8636 19.0909V10.9091C23.8636 8.27318 21.7268 6.13636 19.0909 6.13636H10.9091ZM21.8182 9.77273C21.8182 10.4003 21.3094 10.9091 20.6819 10.9091C20.0542 10.9091 19.5454 10.4003 19.5454 9.77273C19.5454 9.14513 20.0542 8.63636 20.6819 8.63636C21.3094 8.63636 21.8182 9.14513 21.8182 9.77273ZM9.77273 15C9.77273 12.1131 12.1131 9.77273 15 9.77273C17.887 9.77273 20.2272 12.1131 20.2272 15C20.2272 17.887 17.887 20.2272 15 20.2272C12.1131 20.2272 9.77273 17.887 9.77273 15ZM15 11.1364C12.8662 11.1364 11.1364 12.8662 11.1364 15C11.1364 17.1338 12.8662 18.8636 15 18.8636C17.1338 18.8636 18.8636 17.1338 18.8636 15C18.8636 12.8662 17.1338 11.1364 15 11.1364Z" fill="#475C6D"/>
<path fill-rule="evenodd" clip-rule="evenodd" d="M5.45455 0C2.44208 0 0 2.44208 0 5.45455V24.5455C0 27.5579 2.44208 30 5.45455 30H24.5455C27.5579 30 30 27.5579 30 24.5455V5.45455C30 2.44208 27.5579 0 24.5455 0H5.45455ZM4.77273 10.9091C4.77273 7.52007 7.52007 4.77273 10.9091 4.77273H19.0909C22.48 4.77273 25.2273 7.52007 25.2273 10.9091V19.0909C25.2273 22.48 22.48 25.2273 19.0909 25.2273H10.9091C7.52007 25.2273 4.77273 22.48 4.77273 19.0909V10.9091ZM10.9091 6.13636C8.27318 6.13636 6.13636 8.27318 6.13636 10.9091V19.0909C6.13636 21.7268 8.27318 23.8636 10.9091 23.8636H19.0909C21.7268 23.8636 23.8636 21.7268 23.8636 19.0909V10.9091C23.8636 8.27318 21.7268 6.13636 19.0909 6.13636H10.9091ZM21.8182 9.77273C21.8182 10.4003 21.3094 10.9091 20.6819 10.9091C20.0542 10.9091 19.5454 10.4003 19.5454 9.77273C19.5454 9.14513 20.0542 8.63636 20.6819 8.63636C21.3094 8.63636 21.8182 9.14513 21.8182 9.77273ZM9.77273 15C9.77273 12.1131 12.1131 9.77273 15 9.77273C17.887 9.77273 20.2272 12.1131 20.2272 15C20.2272 17.887 17.887 20.2272 15 20.2272C12.1131 20.2272 9.77273 17.887 9.77273 15ZM15 11.1364C12.8662 11.1364 11.1364 12.8662 11.1364 15C11.1364 17.1338 12.8662 18.8636 15 18.8636C17.1338 18.8636 18.8636 17.1338 18.8636 15C18.8636 12.8662 17.1338 11.1364 15 11.1364Z" fill="#FAFAFA" fill-opacity="0.9"/>
</g>
</svg>
