<svg width="136" height="32" viewBox="0 0 136 32" fill="none" xmlns="http://www.w3.org/2000/svg">
<g clip-path="url(#clip0_607_1565)">
<path d="M13.6498 1.36658H4.19322C3.08111 1.36658 2.01455 1.81412 1.22817 2.61076C0.441785 3.40739 0 4.48786 0 5.61447L0 13.2027C2.84338e-05 14.5777 0.539247 15.8964 1.49904 16.8687L4.06537 19.4675L0 23.5859V30.6335C1.72904 30.6331 3.38721 29.9374 4.61014 28.6991L8.40405 24.8511V15.7152L6.29169 12.9042C6.2748 12.8823 6.25368 12.8641 6.22962 12.8507L3.51227 11.3265C3.4807 11.3074 3.45549 11.2791 3.43983 11.2454C3.42417 11.2116 3.41878 11.174 3.42435 11.1371C3.42991 11.1003 3.44618 11.0659 3.47108 11.0385C3.49598 11.011 3.52838 10.9917 3.56415 10.983L3.94586 10.8891C3.97551 10.8826 4.00313 10.8689 4.0263 10.849C4.04946 10.8292 4.06746 10.8038 4.07871 10.7753C4.08996 10.7468 4.09412 10.7159 4.09083 10.6853C4.08753 10.6547 4.07688 10.6255 4.05981 10.6001L3.46965 9.81356C3.35662 9.66245 3.51875 9.46724 3.7059 9.532L4.49155 9.78916C4.67684 9.84829 4.83434 9.66527 4.73521 9.51416L3.83931 8.12792C3.74018 7.97587 3.90324 7.79286 4.08483 7.85386L4.62126 8.03406C4.65143 8.04626 4.68405 8.05094 4.71637 8.04771C4.7487 8.04448 4.77979 8.03343 4.80703 8.01549C4.83426 7.99756 4.85685 7.97326 4.87289 7.94465C4.88893 7.91603 4.89795 7.88393 4.8992 7.85105L4.86029 6.60371C4.85473 6.43289 5.07893 6.34373 5.20957 6.4648L5.84513 7.0514C5.86729 7.07127 5.89321 7.08637 5.92132 7.09575C5.94943 7.10514 5.97913 7.10862 6.00861 7.10599C6.03809 7.10335 6.06673 7.09465 6.09278 7.08043C6.11884 7.0662 6.14175 7.04674 6.16013 7.02324L6.31392 6.81019C6.33564 6.78189 6.36391 6.75947 6.39623 6.7449C6.42855 6.73033 6.46393 6.72406 6.49921 6.72666C6.5345 6.72926 6.5686 6.74064 6.5985 6.7598C6.6284 6.77895 6.65317 6.80529 6.67062 6.83647L7.79258 9.089C7.88523 9.28516 8.20949 9.20163 8.1817 8.98764L7.68047 5.15083C7.67884 5.1132 7.68744 5.07584 7.70533 5.04283C7.72323 5.00982 7.74973 4.98243 7.78195 4.96364C7.81417 4.94485 7.85086 4.93539 7.88803 4.93629C7.92519 4.93719 7.9614 4.94842 7.9927 4.96875L8.21505 5.09827C8.24264 5.11471 8.27356 5.12455 8.30547 5.12705C8.33739 5.12956 8.36944 5.12464 8.39919 5.1127C8.42895 5.10075 8.45562 5.08208 8.47717 5.05811C8.49872 5.03414 8.51459 5.0055 8.52357 4.97438C8.5736 4.75194 8.92844 4.78667 8.92844 5.01192C8.92844 4.78479 9.2842 4.75194 9.33331 4.97438C9.34261 5.00537 9.35874 5.03381 9.38047 5.05756C9.40221 5.08132 9.42898 5.09976 9.45878 5.11151C9.48857 5.12326 9.52061 5.128 9.55248 5.12538C9.58435 5.12276 9.61521 5.11285 9.64275 5.09639L9.86603 4.96687C9.89732 4.94654 9.93353 4.93531 9.9707 4.93441C10.0079 4.93351 10.0446 4.94297 10.0768 4.96176C10.109 4.98055 10.1355 5.00795 10.1534 5.04096C10.1713 5.07397 10.1799 5.11132 10.1783 5.14895L9.67981 8.98857C9.65201 9.20256 9.97165 9.28609 10.0689 9.08994L11.1909 6.83741C11.2082 6.80623 11.2329 6.77988 11.2627 6.76071C11.2925 6.74154 11.3266 6.73015 11.3618 6.72755C11.397 6.72495 11.4323 6.73122 11.4646 6.7458C11.4969 6.76038 11.525 6.78283 11.5467 6.81113L11.7004 7.02418C11.7188 7.04768 11.7417 7.06714 11.7678 7.08136C11.7938 7.09559 11.8225 7.10429 11.852 7.10692C11.8814 7.10956 11.9112 7.10608 11.9393 7.09669C11.9674 7.08731 11.9933 7.07221 12.0154 7.05234L12.6519 6.46574C12.7826 6.34467 13.0068 6.43383 13.0012 6.60465L12.9623 7.85199C12.9636 7.88487 12.9726 7.91697 12.9886 7.94558C13.0047 7.9742 13.0272 7.9985 13.0545 8.01643C13.0817 8.03437 13.1128 8.04541 13.1451 8.04865C13.1775 8.05188 13.2101 8.0472 13.2402 8.035L13.7776 7.8548C13.9629 7.79379 14.1223 7.97681 14.0231 8.12886L13.1272 9.50759C13.0281 9.6587 13.1902 9.84172 13.3709 9.78259L14.1556 9.52543C14.3409 9.46442 14.5058 9.65964 14.3928 9.80699L13.8045 10.5963C13.7874 10.6217 13.7767 10.6509 13.7734 10.6814C13.77 10.7119 13.7741 10.7427 13.7853 10.7712C13.7964 10.7998 13.8143 10.8251 13.8374 10.845C13.8604 10.8649 13.8879 10.8788 13.9175 10.8854L14.3001 10.9792C14.3358 10.9881 14.3682 11.0075 14.3929 11.035C14.4177 11.0625 14.4339 11.0969 14.4393 11.1337C14.4448 11.1705 14.4393 11.2082 14.4236 11.2418C14.4079 11.2755 14.3827 11.3037 14.3511 11.3228L11.6337 12.847C11.61 12.8604 11.5892 12.8786 11.5726 12.9005L9.45931 15.7114V24.928L13.1819 28.6991C14.4039 29.9365 16.0606 30.6321 17.7883 30.6335H17.8606V23.6591L13.7229 19.4675L16.3569 16.8002C16.8331 16.3177 17.2106 15.7448 17.4678 15.1142C17.725 14.4837 17.8569 13.808 17.8559 13.1257L17.843 5.60884C17.8415 4.4832 17.3991 3.40418 16.6128 2.60876C15.8266 1.81335 14.7609 1.36658 13.6498 1.36658Z" fill="#D61B26"/>
<path d="M26.4832 15.4205C27.03 14.41 27.8576 13.5844 28.8633 13.0459C29.8825 12.4953 31.0458 12.2194 32.3534 12.2181C34.0649 12.2181 35.508 12.7068 36.6828 13.6842C37.8575 14.6615 38.6006 16.0168 38.9119 17.75H33.4271C33.2246 17.0542 32.8293 16.7063 32.2413 16.7063C31.8206 16.7063 31.4899 16.9034 31.249 17.2976C31.0081 17.6918 30.8861 18.2768 30.883 19.0527C30.883 19.8254 31.0035 20.4086 31.2444 20.8022C31.4853 21.1957 31.816 21.3928 32.2366 21.3934C32.8277 21.3934 33.2246 21.0468 33.4271 20.3535H38.9119C38.6031 22.0873 37.86 23.4429 36.6828 24.4203C35.5055 25.3976 34.0624 25.8863 32.3534 25.8863C31.0464 25.8863 29.8831 25.6104 28.8633 25.0585C27.8573 24.5196 27.0297 23.6933 26.4832 22.6821C25.9156 21.6497 25.6315 20.4399 25.6309 19.0527C25.6302 17.6655 25.9144 16.4548 26.4832 15.4205Z" fill="#D61B26"/>
<path d="M43.2294 25.0594C42.1916 24.5271 41.3283 23.7017 40.7437 22.683C40.1451 21.6506 39.8456 20.4408 39.845 19.0536C39.8444 17.6664 40.1439 16.4567 40.7437 15.4242C41.328 14.4048 42.1914 13.5788 43.2294 13.0459C44.2874 12.4953 45.4779 12.2194 46.8009 12.2181C48.1239 12.2169 49.3142 12.4928 50.3716 13.0459C51.4093 13.5783 52.2727 14.4037 52.8573 15.4224C53.4571 16.4548 53.7566 17.6646 53.756 19.0518C53.7554 20.4389 53.4558 21.6487 52.8573 22.6811C52.273 23.7005 51.4096 24.5266 50.3716 25.0594C49.3135 25.6113 48.1233 25.8872 46.8009 25.8872C45.4786 25.8872 44.288 25.6113 43.2294 25.0594ZM48.0146 20.7684C48.3407 20.3817 48.5041 19.8101 48.5047 19.0536C48.5053 18.2972 48.342 17.7259 48.0146 17.3398C47.8668 17.1588 47.6814 17.0131 47.4716 16.9131C47.2618 16.813 47.0328 16.7612 46.8009 16.7612C46.5691 16.7612 46.3401 16.813 46.1303 16.9131C45.9205 17.0131 45.735 17.1588 45.5873 17.3398C45.2599 17.7253 45.0965 18.2965 45.0972 19.0536C45.0978 19.8107 45.2571 20.3823 45.5752 20.7684C45.7242 20.9496 45.9106 21.0954 46.1214 21.1955C46.3322 21.2956 46.5621 21.3475 46.7949 21.3475C47.0277 21.3475 47.2576 21.2956 47.4684 21.1955C47.6792 21.0954 47.8657 20.9496 48.0146 20.7684Z" fill="#D61B26"/>
<path d="M60.3607 21.3671H65.8463V25.7164H54.6897V21.6036L59.7075 16.7325H54.7592V12.3823H65.6128V16.496L60.3607 21.3671Z" fill="#D61B26"/>
<path d="M67.9235 10.585C67.6606 10.3584 67.4509 10.0753 67.3095 9.75628C67.1682 9.43727 67.0988 9.09036 67.1063 8.74077C67.0984 8.38633 67.1674 8.03445 67.3086 7.71006C67.4498 7.38567 67.6598 7.09671 67.9235 6.86366C68.467 6.36748 69.1903 6.11938 70.0933 6.11938C70.9809 6.11938 71.6967 6.36748 72.2409 6.86366C72.5044 7.09683 72.7142 7.38582 72.8554 7.71017C72.9967 8.03453 73.0658 8.38635 73.058 8.74077C73.0654 9.09033 72.9959 9.43718 72.8545 9.75616C72.7132 10.0751 72.5036 10.3583 72.2409 10.585C71.6961 11.0737 70.9802 11.318 70.0933 11.318C69.194 11.318 68.4707 11.0737 67.9235 10.585ZM72.6615 12.3824V25.7164H67.4797V12.3824H72.6615Z" fill="#D61B26"/>
<path d="M87.7501 13.8249C88.5988 14.8499 89.0228 16.2367 89.0222 17.9856V25.7164H83.8645V18.6482C83.8645 18.0175 83.6971 17.5169 83.3624 17.1465C83.0276 16.7761 82.5804 16.5909 82.0208 16.5909C81.4446 16.5909 80.9931 16.7761 80.6663 17.1465C80.3396 17.5169 80.1762 18.0175 80.1762 18.6482V25.7164H74.9954V12.3824H80.1762V14.4153C80.5879 13.7791 81.1442 13.2522 81.7985 12.8789C82.4779 12.4847 83.2833 12.2876 84.2147 12.2876C85.7243 12.2876 86.9027 12.8 87.7501 13.8249Z" fill="#D61B26"/>
<path d="M104.018 13.8249C104.866 14.8498 105.29 16.2367 105.29 17.9855V25.7164H100.133V18.6482C100.133 18.0175 99.9651 17.5169 99.6304 17.1465C99.2956 16.7761 98.8481 16.5909 98.2879 16.5909C97.7123 16.5909 97.2611 16.7761 96.9343 17.1465C96.6076 17.5169 96.4442 18.0175 96.4442 18.6482V25.7164H91.2625V8.22083H96.4461V14.4153C96.8577 13.7791 97.414 13.2522 98.0683 12.8789C98.7477 12.4847 99.5532 12.2876 100.485 12.2876C101.992 12.2876 103.17 12.8 104.018 13.8249Z" fill="#D61B26"/>
<path d="M107.542 15.397C108.017 14.3646 108.665 13.5765 109.488 13.0328C110.314 12.4877 111.281 12.2035 112.267 12.2162C113.123 12.2162 113.862 12.3936 114.484 12.7484C115.088 13.0841 115.582 13.5893 115.908 14.2032V12.3824H121.066V25.7164H115.908V23.8975C115.582 24.5111 115.088 25.016 114.484 25.3513C113.862 25.7061 113.123 25.8835 112.267 25.8835C111.282 25.8961 110.314 25.6123 109.488 25.0679C108.663 24.5235 108.014 23.7351 107.542 22.7027C107.07 21.6703 106.833 20.4536 106.831 19.0527C106.831 17.6486 107.068 16.43 107.542 15.397ZM115.373 17.3952C115.194 17.2082 114.98 17.0595 114.744 16.9579C114.507 16.8564 114.253 16.8041 113.996 16.8041C113.739 16.8041 113.485 16.8564 113.249 16.9579C113.012 17.0595 112.798 17.2082 112.619 17.3952C112.261 17.7894 112.082 18.3409 112.082 19.0498C112.082 19.7588 112.261 20.3106 112.619 20.7055C112.798 20.8922 113.012 21.0407 113.249 21.1421C113.485 21.2435 113.739 21.2957 113.996 21.2957C114.253 21.2957 114.507 21.2435 114.744 21.1421C114.98 21.0407 115.194 20.8922 115.373 20.7055C115.731 20.3113 115.91 19.7594 115.91 19.0498C115.911 18.3403 115.732 17.7887 115.373 17.3952Z" fill="#D61B26"/>
<path d="M136 21.6675H132.109V25.7165H126.543V21.6675H122.651V16.2934H126.543V12.2163H132.109V16.2934H136V21.6675Z" fill="#D61B26"/>
</g>
<defs>
<clipPath id="clip0_607_1565">
<rect width="136" height="32" fill="white"/>
</clipPath>
</defs>
</svg>
