<svg width="80" height="80" viewBox="0 0 80 80" fill="none" xmlns="http://www.w3.org/2000/svg">
<g clip-path="url(#clip0_698_1075)">
<path d="M39.9994 0C17.9088 0 0 17.9088 0 39.9994C0 62.09 17.9088 80 39.9994 80C62.09 80 80 62.0912 80 39.9994C80 17.9076 62.0912 0 39.9994 0ZM54.9949 64.8194H54.874C51.9711 64.8192 49.1872 63.666 47.1344 61.6135L40.8846 55.3638V40.0949L44.4291 35.433C44.4573 35.3964 44.4927 35.3659 44.5331 35.3435L49.0983 32.8209C49.1546 32.7917 49.2004 32.7457 49.2292 32.6892C49.258 32.6327 49.2685 32.5686 49.259 32.5059C49.2495 32.4432 49.2206 32.3851 49.1764 32.3396C49.1322 32.2942 49.0749 32.2637 49.0124 32.2525L48.3727 32.0905C48.3214 32.0813 48.2732 32.0592 48.2329 32.0262C48.1926 31.9931 48.1614 31.9503 48.1423 31.9018C48.1233 31.8532 48.117 31.8006 48.1241 31.749C48.1312 31.6973 48.1514 31.6483 48.1828 31.6067L49.1733 30.3031C49.3631 30.054 49.0898 29.7287 48.7754 29.8302L47.4573 30.2571C47.1537 30.3551 46.8828 30.0528 47.0485 29.8012L48.5529 27.5168C48.7198 27.2641 48.4453 26.9605 48.1417 27.0609L47.2396 27.3596C47.1893 27.3791 47.1351 27.3863 47.0815 27.3806C47.0279 27.375 46.9765 27.3566 46.9314 27.327C46.8863 27.2974 46.849 27.2575 46.8225 27.2106C46.7959 27.1637 46.781 27.1111 46.7788 27.0573L46.8429 24.9893C46.8526 24.7064 46.4801 24.5588 46.2576 24.7596L45.1886 25.727C45.1515 25.7603 45.108 25.7855 45.0608 25.8012C45.0136 25.8169 44.9637 25.8227 44.9141 25.8183C44.8645 25.8139 44.8164 25.7993 44.7727 25.7755C44.729 25.7517 44.6907 25.7191 44.6601 25.6799L44.4025 25.3267C44.3658 25.2803 44.3183 25.2436 44.2641 25.2198C44.2099 25.1959 44.1507 25.1857 44.0917 25.19C44.0327 25.1943 43.9756 25.213 43.9254 25.2444C43.8752 25.2758 43.8335 25.319 43.8039 25.3703L41.9198 29.1095C41.7565 29.4336 41.2208 29.2957 41.2668 28.9414L42.1036 22.5768C42.1375 22.3155 41.8243 22.1341 41.58 22.2744L41.2051 22.4897C41.159 22.5174 41.1072 22.5341 41.0537 22.5387C41.0001 22.5433 40.9462 22.5355 40.8961 22.516C40.846 22.4965 40.8011 22.4658 40.7647 22.4262C40.7283 22.3867 40.7015 22.3393 40.6863 22.2877C40.6028 21.9189 40.0054 21.9733 40.0054 22.3506C40.0054 21.9733 39.4092 21.9189 39.3258 22.2877C39.3106 22.3393 39.2838 22.3867 39.2474 22.4262C39.211 22.4658 39.166 22.4965 39.116 22.516C39.0659 22.5355 39.012 22.5433 38.9584 22.5387C38.9049 22.5341 38.8531 22.5174 38.807 22.4897L38.4321 22.2744C38.1903 22.1341 37.8734 22.3155 37.9085 22.5768L38.7453 28.9414C38.7913 29.2957 38.2616 29.4336 38.0911 29.1095L36.2082 25.3703C36.1786 25.319 36.1368 25.2758 36.0867 25.2444C36.0365 25.213 35.9794 25.1943 35.9204 25.19C35.8614 25.1857 35.8022 25.1959 35.748 25.2198C35.6938 25.2436 35.6463 25.2803 35.6096 25.3267L35.352 25.6799C35.3214 25.7191 35.2831 25.7517 35.2394 25.7755C35.1957 25.7993 35.1476 25.8139 35.098 25.8183C35.0484 25.8227 34.9985 25.8169 34.9513 25.8012C34.904 25.7855 34.8606 25.7603 34.8235 25.727L33.7545 24.7596C33.5344 24.5588 33.1595 24.7064 33.168 24.9893L33.2333 27.0573C33.2311 27.1111 33.2162 27.1637 33.1896 27.2106C33.1631 27.2575 33.1257 27.2974 33.0807 27.327C33.0356 27.3566 32.9841 27.375 32.9305 27.3806C32.8769 27.3863 32.8228 27.3791 32.7725 27.3596L31.8704 27.0609C31.5668 26.9605 31.2923 27.2641 31.4592 27.5168L32.9636 29.8012C33.1293 30.0528 32.8572 30.3551 32.5536 30.2571L31.2355 29.8302C30.921 29.7287 30.6489 30.054 30.8388 30.3031L31.8292 31.6067C31.8607 31.6484 31.8809 31.6975 31.8879 31.7492C31.8949 31.8009 31.8885 31.8536 31.8694 31.9022C31.8502 31.9507 31.8189 31.9936 31.7784 32.0265C31.7379 32.0595 31.6896 32.0815 31.6382 32.0905L30.9972 32.2525C30.9347 32.2635 30.8773 32.2939 30.8329 32.3392C30.7885 32.3846 30.7595 32.4427 30.7499 32.5055C30.7403 32.5682 30.7506 32.6324 30.7793 32.6889C30.8081 32.7455 30.8538 32.7917 30.9102 32.8209L35.4729 35.3471C35.5133 35.3695 35.5487 35.4 35.5769 35.4366L39.1238 40.0949V55.2428L32.7471 61.6147C30.6941 63.667 27.9103 64.8201 25.0075 64.8206V53.1398L31.8317 46.3169L27.5229 42.0081C26.7247 41.2104 26.0917 40.2632 25.6598 39.2207C25.228 38.1782 25.0059 37.0609 25.0063 35.9325V23.3556C25.0061 22.4309 25.1881 21.5152 25.5419 20.6608C25.8956 19.8065 26.4142 19.0302 27.068 18.3763C27.7218 17.7224 28.498 17.2037 29.3523 16.8497C30.2066 16.4958 31.1222 16.3137 32.0469 16.3137H47.9241C49.7889 16.3137 51.5777 17.0534 52.8978 18.3706C54.218 19.6879 54.9617 21.4749 54.9659 23.3398L54.9865 35.7958C54.9887 36.9266 54.7675 38.0468 54.3357 39.0919C53.9038 40.137 53.2697 41.0865 52.4699 41.8859L48.0462 46.3169L54.9925 53.2632L54.9949 64.8194Z" fill="#FAFAFA"/>
</g>
<defs>
<clipPath id="clip0_698_1075">
<rect width="80" height="80" fill="white"/>
</clipPath>
</defs>
</svg>
